<svg xmlns="http://www.w3.org/2000/svg" viewBox="0 0 960 320" role="img" aria-labelledby="td dd" font-family="ui-sans-serif, system-ui, -apple-system, 'Segoe UI', sans-serif">
  <title id="td">Workshop roadmap</title>
  <desc id="dd">Six stages in order: concepts, API setup, model testing, exercises, project and assessment, with timings for each.</desc>
  <defs>
    <marker id="arrd" viewBox="0 0 8 8" refX="7" refY="4" markerWidth="7" markerHeight="7" orient="auto-start-reverse">
      <path d="M0,0.5 L7.5,4 L0,7.5" fill="none" stroke="#9CA3AF" stroke-width="1.2" stroke-linecap="round" stroke-linejoin="round"/>
    </marker>
    <marker id="arrsd" viewBox="0 0 8 8" refX="7" refY="4" markerWidth="7" markerHeight="7" orient="auto-start-reverse">
      <path d="M0,0.5 L7.5,4 L0,7.5" fill="none" stroke="#38BDF8" stroke-width="1.2" stroke-linecap="round" stroke-linejoin="round"/>
    </marker>
  </defs>
  <rect x="8" y="8" width="944" height="304" rx="12" fill="#111827" stroke="rgba(255,255,255,0.08)"/>
  <text x="48" y="56" font-family="ui-monospace, 'SF Mono', Menlo, monospace" font-size="12" font-weight="500" letter-spacing="0.18em" fill="#9CA3AF">MORNING ROADMAP · 3 HOURS</text>
  <line x1="48" y1="72" x2="912" y2="72" stroke="rgba(255,255,255,0.10)"/>
  <rect x="48" y="112" width="272" height="72" rx="8" fill="rgba(255,255,255,0.03)" stroke="rgba(255,255,255,0.28)"/>
  <text x="184" y="143" text-anchor="middle" font-size="15" font-weight="600" fill="#F5F5F5">Concepts</text>
  <text x="184" y="165" text-anchor="middle" font-family="ui-monospace, 'SF Mono', Menlo, monospace" font-size="11" fill="#9CA3AF">30 min · how APIs work</text>
  <path d="M320,148 C336,148 344,148 364,148" fill="none" stroke="#9CA3AF" stroke-width="1.2" marker-end="url(#arrd)"/>
  <rect x="368" y="112" width="272" height="72" rx="8" fill="rgba(255,255,255,0.03)" stroke="rgba(255,255,255,0.28)"/>
  <text x="504" y="143" text-anchor="middle" font-size="15" font-weight="600" fill="#F5F5F5">API Setup</text>
  <text x="504" y="165" text-anchor="middle" font-family="ui-monospace, 'SF Mono', Menlo, monospace" font-size="11" fill="#9CA3AF">45 min · get keys</text>
  <path d="M640,148 C656,148 664,148 684,148" fill="none" stroke="#9CA3AF" stroke-width="1.2" marker-end="url(#arrd)"/>
  <rect x="688" y="112" width="272" height="72" rx="8" fill="rgba(255,255,255,0.03)" stroke="rgba(255,255,255,0.28)"/>
  <text x="824" y="143" text-anchor="middle" font-size="15" font-weight="600" fill="#F5F5F5">Model Testing</text>
  <text x="824" y="165" text-anchor="middle" font-family="ui-monospace, 'SF Mono', Menlo, monospace" font-size="11" fill="#9CA3AF">45 min · compare</text>
  <rect x="48" y="224" width="272" height="72" rx="8" fill="rgba(255,255,255,0.03)" stroke="rgba(255,255,255,0.28)"/>
  <text x="184" y="255" text-anchor="middle" font-size="15" font-weight="600" fill="#F5F5F5">Exercises</text>
  <text x="184" y="277" text-anchor="middle" font-family="ui-monospace, 'SF Mono', Menlo, monospace" font-size="11" fill="#9CA3AF">30 min · practice</text>
  <path d="M320,260 C336,260 344,260 364,260" fill="none" stroke="#9CA3AF" stroke-width="1.2" marker-end="url(#arrd)"/>
  <rect x="368" y="224" width="272" height="72" rx="8" fill="rgba(255,255,255,0.03)" stroke="rgba(255,255,255,0.28)"/>
  <text x="504" y="255" text-anchor="middle" font-size="15" font-weight="600" fill="#F5F5F5">Project</text>
  <text x="504" y="277" text-anchor="middle" font-family="ui-monospace, 'SF Mono', Menlo, monospace" font-size="11" fill="#9CA3AF">20 min · apply</text>
  <path d="M640,260 C656,260 664,260 684,260" fill="none" stroke="#9CA3AF" stroke-width="1.2" marker-end="url(#arrd)"/>
  <rect x="688" y="224" width="272" height="72" rx="8" fill="rgba(245,158,11,0.08)" stroke="#F59E0B" stroke-width="1.2"/>
  <text x="824" y="255" text-anchor="middle" font-size="15" font-weight="600" fill="#F5F5F5">Assessment</text>
  <text x="824" y="277" text-anchor="middle" font-family="ui-monospace, 'SF Mono', Menlo, monospace" font-size="11" fill="#F59E0B">10 min · validate</text>
  <path d="M824,184 C824,204 184,192 184,220" fill="none" stroke="#9CA3AF" stroke-width="1.2" marker-end="url(#arrd)"/>
</svg>
